<?xml version="1.0" standalone="no"?><!DOCTYPE svg PUBLIC "-//W3C//DTD SVG 1.1//EN" "http://www.w3.org/Graphics/SVG/1.1/DTD/svg11.dtd"><svg t="1566901045493" class="icon" viewBox="0 0 1024 1024" version="1.1" xmlns="http://www.w3.org/2000/svg" p-id="1360" xmlns:xlink="http://www.w3.org/1999/xlink" width="32" height="32"><defs><style type="text/css">@font-face { font-weight: 400; font-style: normal; font-family: Inter-Loom; src: url("https://cdn.loom.com/assets/fonts/inter/Inter-UI-Regular.woff2") format("woff2"); }
@font-face { font-weight: 400; font-style: italic; font-family: Inter-Loom; src: url("https://cdn.loom.com/assets/fonts/inter/Inter-UI-Italic.woff2") format("woff2"); }
@font-face { font-weight: 500; font-style: normal; font-family: Inter-Loom; src: url("https://cdn.loom.com/assets/fonts/inter/Inter-UI-Medium.woff2") format("woff2"); }
@font-face { font-weight: 500; font-style: italic; font-family: Inter-Loom; src: url("https://cdn.loom.com/assets/fonts/inter/Inter-UI-MediumItalic.woff2") format("woff2"); }
@font-face { font-weight: 700; font-style: normal; font-family: Inter-Loom; src: url("https://cdn.loom.com/assets/fonts/inter/Inter-UI-Bold.woff2") format("woff2"); }
@font-face { font-weight: 700; font-style: italic; font-family: Inter-Loom; src: url("https://cdn.loom.com/assets/fonts/inter/Inter-UI-BoldItalic.woff2") format("woff2"); }
@font-face { font-weight: 900; font-style: normal; font-family: Inter-Loom; src: url("https://cdn.loom.com/assets/fonts/inter/Inter-UI-Black.woff2") format("woff2"); }
@font-face { font-weight: 900; font-style: italic; font-family: Inter-Loom; src: url("https://cdn.loom.com/assets/fonts/inter/Inter-UI-BlackItalic.woff2") format("woff2"); }
</style></defs><path d="M989.781333 443.690667c-12.117333-50.090667-47.786667-86.314667-77.226666-103.381334a161.621333 161.621333 0 0 0-81.152-21.589333h-104.746667c16.384-48.981333 20.565333-103.253333 20.992-108.885333 0.085333-1.194667 0.085333-2.176 0.085333-3.114667 0-42.581333-6.186667-79.658667-18.304-110.165333-11.904-29.354667-29.397333-52.650667-52.053333-69.376A143.658667 143.658667 0 0 0 604.16 0.512a179.754667 179.754667 0 0 0-68.053333 8.192c-32.085333 10.410667-55.68 32.085333-69.973334 64.469333-10.709333 23.978667-14.933333 50.389333-18.730666 73.898667l-0.170667 1.365333c-0.213333 1.92-0.597333 3.712-0.896 5.632-1.408 8.576-2.602667 16.768-4.309333 24.064a345.216 345.216 0 0 1-84.906667 161.706667 337.493333 337.493333 0 0 1-70.826667 58.154667c-16.810667 10.069333-36.309333 15.36-56.192 15.36H108.8a79.36 79.36 0 0 0-79.146667 79.189333v386.901333c0 43.52 35.285333 78.762667 78.762667 78.762667h169.258667c34.090667 0 62.677333 9.088 99.072 20.821333l1.578666 0.469334C439.466667 999.296 515.413333 1024 659.242667 1024h1.621333c88.362667-0.085333 153.941333-22.997333 194.645333-68.266667a159.872 159.872 0 0 0 40.277334-88.405333c27.306667-20.906667 44.672-46.549333 51.797333-76.672a137.130667 137.130667 0 0 0-4.309333-74.368c22.613333-21.589333 36.266667-46.677333 40.490666-74.368 4.608-30.378667-3.712-56.789333-12.117333-74.581333 9.386667-18.218667 15.914667-36.608 19.498667-54.784a158.08 158.08 0 0 0-1.365334-68.864zM896 592.042667c2.56 3.584 13.653333 20.565333 10.666667 38.954666-2.474667 14.634667-13.568 28.714667-33.066667 41.898667a38.528 38.528 0 0 0-11.008 53.376c0.512 0.896 14.293333 24.746667 8.789333 47.701333-3.498667 14.592-14.762667 27.690667-33.706666 38.997334a37.888 37.888 0 0 0-18.773334 36.864c0.128 1.621333 1.493333 29.610667-21.674666 54.314666-25.173333 27.093333-72.490667 41.386667-136.533334 41.472h-1.536c-130.773333 0-200.661333-22.485333-256.853333-40.576-34.133333-11.008-66.645333-21.504-104.832-24.32v-402.176c9.984-3.797333 19.584-8.490667 28.501333-13.781333a403.626667 403.626667 0 0 0 87.765334-71.594667 423.936 423.936 0 0 0 104.362666-198.016c2.56-11.392 4.394667-23.296 6.186667-34.517333 8.192-52.053333 14.506667-70.485333 35.712-77.226667 9.984-3.242667 44.970667-12.245333 71.466667 7.168 24.789333 18.005333 38.186667 57.856 38.4 114.944-1.194667 17.194667-7.808 68.181333-22.186667 102.272-8.533333 20.010667-6.528 42.581333 5.546667 60.501334a64 64 0 0 0 53.205333 28.672h125.056c15.104 0 29.610667 3.84 42.026667 11.093333 15.872 9.130667 34.56 29.525333 40.533333 54.186667 6.229333 25.301333-0.682667 53.717333-20.352 84.608A38.442667 38.442667 0 0 0 896 592.042667zM107.605333 492.373333c0-0.597333 0.512-1.109333 1.109334-1.109333h110.890666v388.864H108.629333c-0.597333 0-1.024-0.384-1.024-0.682667V492.373333z" fill="#666666" p-id="1361"></path></svg>